<svg xmlns="http://www.w3.org/2000/svg" version="1.1" viewBox="-5.0 -10.0 110.0 135.0">
 <path d="m8.9531 19.594h17.359c0.59375 0 1.0781-0.48438 1.0781-1.0781s-0.48438-1.0781-1.0781-1.0781h-17.359c-0.59375 0-1.0781 0.48438-1.0781 1.0781s0.48438 1.0781 1.0781 1.0781z"/>
 <path d="m8.9531 27.547h17.359c0.59375 0 1.0781-0.48438 1.0781-1.0781s-0.48438-1.0781-1.0781-1.0781h-17.359c-0.59375 0-1.0781 0.48438-1.0781 1.0781s0.48438 1.0781 1.0781 1.0781z"/>
 <path d="m8.9531 35.516h17.359c0.59375 0 1.0781-0.48438 1.0781-1.0781s-0.48438-1.0781-1.0781-1.0781h-17.359c-0.59375 0-1.0781 0.48438-1.0781 1.0781s0.48438 1.0781 1.0781 1.0781z"/>
 <path d="m8.9531 43.469h17.359c0.59375 0 1.0781-0.48438 1.0781-1.0781s-0.48438-1.0781-1.0781-1.0781h-17.359c-0.59375 0-1.0781 0.48438-1.0781 1.0781s0.48438 1.0781 1.0781 1.0781z"/>
 <path d="m98.328 83.828-10.672-10.688-0.015625-0.1875h-0.1875l-4.1562-4.1562c-0.32812-0.34375-0.8125-0.53125-1.2812-0.53125-0.48438 0-0.96875 0.1875-1.2812 0.53125l-1.9844 2-1.9688-1.9844c4.6719-5.1562 7.25-11.766 7.25-18.688 0-10.516-6.125-20.297-15.609-24.953v-16.328c0-1.3281-1.0938-2.4219-2.4219-2.4219h-63.578c-1.3281 0-2.4219 1.0938-2.4219 2.4219v79.938c0 1.3438 1.0938 2.4375 2.4219 2.4375h63.562c1.3281 0 2.4219-1.0938 2.4219-2.4375v-13.703c2.5312-1.25 4.8281-2.8438 6.8438-4.7344l1.9531 1.9531-1.9688 1.9844c-0.34375 0.34375-0.54688 0.79688-0.54688 1.2656 0 0.5 0.20312 0.95312 0.54688 1.2812l15.031 15.047c1.0938 1.0781 2.5156 1.6562 4.0312 1.6562s2.9531-0.59375 4.0156-1.6562c2.25-2.1875 2.25-5.8125 0.015625-8.0469zm-32.078 4.9531c0 0.15625-0.125 0.28125-0.26562 0.28125h-63.562c-0.15625 0-0.28125-0.125-0.28125-0.28125v-79.938c0-0.15625 0.125-0.28125 0.28125-0.28125h63.562c0.14062 0 0.26562 0.125 0.26562 0.28125v15.391c-3.25-1.2656-6.6094-1.9062-10.047-1.9062-15.344 0-27.812 12.469-27.812 27.812s12.469 27.812 27.812 27.812c3.4531 0 6.8281-0.64062 10.047-1.875zm-10.047-16.203c-12.359 0-22.422-10.062-22.422-22.438 0-12.359 10.062-22.422 22.422-22.422 12.375 0 22.438 10.062 22.438 22.422 0 12.375-10.062 22.438-22.438 22.438zm20.75 3.0156 2.4062-2.4219h0.046875l0.17188-0.1875v-0.015625l2.4062-2.4219 3.2969 3.2812-5.0312 5.0469zm19.859 14.797c-0.67188 0.67188-1.5625 1.0469-2.5156 1.0469s-1.8438-0.375-2.5156-1.0469l-6.9688-6.9531 5.0312-5.0312 6.9688 6.9531c1.3906 1.375 1.3906 3.6406 0 5.0312z"/>
 <path d="m47.594 56.938v7.4688c0 0.60938-0.48438 1.0938-1.0781 1.0938h-4.9219c-0.59375 0-1.0781-0.48438-1.0781-1.0938v-7.4688c0-0.59375 0.48438-1.0781 1.0781-1.0781h4.9219c0.59375 0.015625 1.0781 0.48438 1.0781 1.0781z"/>
 <path d="m55.609 53.016v11.391c0 0.60938-0.48438 1.0938-1.0781 1.0938h-4.9219c-0.60938 0-1.0938-0.48438-1.0938-1.0938v-11.391c0-0.59375 0.48438-1.0781 1.0938-1.0781h4.9219c0.59375 0 1.0781 0.48438 1.0781 1.0781z"/>
 <path d="m63.781 54.625v9.7812c0 0.60938-0.48438 1.0938-1.0781 1.0938h-4.9219c-0.59375 0-1.0781-0.48438-1.0781-1.0938v-9.7812c0-0.59375 0.48438-1.0781 1.0781-1.0781h4.9219c0.60938 0.015625 1.0781 0.48438 1.0781 1.0781z"/>
 <path d="m71.891 48.25v16.172c0 0.60938-0.48438 1.0938-1.0781 1.0938h-4.8125c-0.59375 0-1.0781-0.48438-1.0781-1.0938v-16.172c0-0.59375 0.48438-1.0781 1.0781-1.0781h4.8125c0.59375 0 1.0781 0.48438 1.0781 1.0781z"/>
 <path d="m58.766 48.438c0.5 0.46875 1.125 0.73438 1.7969 0.73438 0.6875 0 1.3281-0.26562 1.7969-0.76562 0.6875-0.6875 0.90625-1.75 0.5625-2.6719l5.5781-6.0156c0.28125 0.10938 0.54688 0.15625 0.84375 0.15625 0.6875 0 1.3281-0.26562 1.8125-0.75 0.98438-1 0.98438-2.625 0-3.6094-0.48438-0.48438-1.125-0.75-1.7969-0.75s-1.3125 0.26562-1.7812 0.73438c-0.71875 0.70312-0.9375 1.75-0.5625 2.6875l-5.6094 6c-0.28125-0.09375-0.54688-0.14062-0.82812-0.14062-0.67188 0-1.3125 0.26562-1.7969 0.75l-0.046875 0.046875-4.3594-1.3125c-0.09375-0.51562-0.3125-0.95312-0.64062-1.2812-0.48438-0.48438-1.125-0.73438-1.8125-0.73438s-1.3125 0.26562-1.7969 0.75c-0.46875 0.46875-0.75 1.125-0.75 1.7969 0 0.23438 0.03125 0.45312 0.09375 0.70312l-5.1562 3.5469c-0.40625-0.23438-0.85938-0.35938-1.3281-0.35938-0.65625 0-1.2812 0.25-1.7344 0.71875-0.98438 1-0.98438 2.625 0 3.6094 0.48438 0.48438 1.125 0.75 1.7969 0.75s1.3281-0.26562 1.7969-0.75c0.5625-0.5625 0.8125-1.375 0.67188-2.1875l5.375-3.6875c0.34375 0.15625 0.67188 0.23438 1 0.23438 0.6875 0 1.3281-0.26562 1.7969-0.75 0.0625-0.0625 0.10938-0.125 0.17188-0.21875l4.1719 1.2656c0.078125 0.54688 0.32812 1.0938 0.73438 1.5z"/>
</svg>