<svg xmlns="http://www.w3.org/2000/svg" version="1.1" viewBox="-5.0 -10.0 110.0 135.0">
 <g>
  <path d="m83.945 68.859h-67.891c-3.9492-0.003906-7.1484-3.2031-7.1562-7.1523v-44.086c0.007812-3.9492 3.207-7.1484 7.1562-7.1523h67.891c3.9492 0.003906 7.1484 3.2031 7.1562 7.1523v44.086c-0.007812 3.9492-3.207 7.1484-7.1562 7.1523zm-67.891-56.191c-2.7344 0.003906-4.9531 2.2188-4.9531 4.9531v44.086c0 2.7344 2.2188 4.9492 4.9531 4.9492h67.891c2.7344 0 4.9531-2.2148 4.9531-4.9492v-44.086c0-2.7344-2.2188-4.9492-4.9531-4.9531z"/>
  <path d="m90 58.398h-80c-0.60938 0-1.1016-0.49219-1.1016-1.0977 0-0.60938 0.49219-1.1016 1.1016-1.1016h80c0.60938 0 1.1016 0.49219 1.1016 1.1016 0 0.60547-0.49219 1.0977-1.1016 1.0977z"/>
  <path d="m53.891 82.785h-7.7812c-0.60547 0-1.0977-0.49219-1.0977-1.0977v-13.93c0-0.60547 0.49219-1.1016 1.0977-1.1016 0.60938 0 1.1016 0.49609 1.1016 1.1016v12.828h5.5781v-12.828c0-0.60547 0.49219-1.1016 1.1016-1.1016 0.60547 0 1.0977 0.49609 1.0977 1.1016v13.93c0 0.60547-0.49219 1.0977-1.0977 1.0977z"/>
  <path d="m50 89.531c-4.3828 0-8.5234-0.60938-11.652-1.7188-4.4688-1.582-5.4062-3.6094-5.4062-5.0312 0-1.2227 0.71094-2.9922 4.0859-4.5 2.2891-1.0234 5.4805-1.7617 8.9844-2.0703h0.003906c0.29297-0.039063 0.59375 0.046874 0.82422 0.23437 0.23438 0.1875 0.37891 0.46094 0.40625 0.75781s-0.070313 0.59375-0.26562 0.82031c-0.19531 0.22656-0.47266 0.35937-0.77344 0.375-3.2695 0.28906-6.2109 0.96094-8.2812 1.8867-1.7422 0.78125-2.7852 1.7148-2.7852 2.5 0 0.75781 1.0352 1.9297 3.9414 2.9609s6.7773 1.5859 10.918 1.5859 8.0156-0.56641 10.914-1.5938c2.8984-1.0273 3.9414-2.1992 3.9414-2.9609 0-0.78125-1.0391-1.7188-2.7852-2.5-2.0703-0.92969-5.0117-1.6016-8.2812-1.8867l0.003907 0.003906c-0.29688-0.023437-0.57031-0.16016-0.76172-0.38281-0.19141-0.22656-0.28516-0.51953-0.25781-0.8125 0.023437-0.29688 0.16797-0.56641 0.39453-0.75391 0.23047-0.1875 0.52344-0.27344 0.81641-0.24219 3.5078 0.3125 6.6992 1.0469 8.9844 2.0703 3.375 1.5117 4.0859 3.2852 4.0859 4.5 0 1.4219-0.9375 3.4492-5.4062 5.0312-3.125 1.1172-7.2656 1.7266-11.648 1.7266z"/>
  <path d="m53 63.414h-6c-0.60938 0-1.1016-0.49219-1.1016-1.0977 0-0.60938 0.49219-1.1016 1.1016-1.1016h6c0.60938 0 1.1016 0.49219 1.1016 1.1016 0 0.60547-0.49219 1.0977-1.1016 1.0977z"/>
  <path d="m28.285 53.684c-0.10156 0-0.20312-0.011719-0.30469-0.042969-0.58203-0.16797-0.91797-0.77734-0.75-1.3633l3.7812-13.047c0.17188-0.57422 0.77734-0.90625 1.3555-0.73828 0.58203 0.16797 0.91797 0.76953 0.75391 1.3516l-3.7812 13.047h0.003906c-0.13672 0.46875-0.56641 0.79297-1.0586 0.79297z"/>
  <path d="m24.441 52.238c-0.27734 0-0.54688-0.10938-0.75-0.30078l-5.4414-5.0781c-0.22266-0.20703-0.35156-0.49609-0.35156-0.80078 0-0.30469 0.12891-0.59766 0.35156-0.80469l5.4414-5.0781c0.44531-0.40234 1.1328-0.375 1.543 0.066407 0.41016 0.4375 0.39062 1.125-0.042969 1.543l-4.582 4.2734 4.582 4.2734v-0.003906c0.33203 0.30859 0.44141 0.78906 0.27344 1.2109-0.16406 0.41797-0.57031 0.69531-1.0234 0.69531z"/>
  <path d="m35.91 52.238c-0.45312 0-0.85938-0.27734-1.0234-0.69531-0.16797-0.42188-0.058594-0.90234 0.27344-1.2109l4.582-4.2734-4.582-4.2695c-0.43359-0.41797-0.45312-1.1055-0.042968-1.543 0.41016-0.44141 1.0977-0.46875 1.543-0.066406l5.4414 5.0781c0.22266 0.20703 0.34766 0.5 0.34766 0.80469s-0.125 0.59375-0.34766 0.80078l-5.4414 5.0781h-0.003906c-0.20312 0.19141-0.46875 0.29688-0.74609 0.29688z"/>
  <path d="m70.492 30.16c-0.10156 0-0.20703-0.015625-0.30469-0.042968-0.28125-0.082032-0.51562-0.27344-0.65625-0.52734s-0.17578-0.55859-0.09375-0.83594l3.7773-13.047c0.17578-0.57812 0.78125-0.90625 1.3594-0.73828s0.91406 0.76953 0.75391 1.3477l-3.7773 13.051c-0.13672 0.46875-0.56641 0.79297-1.0586 0.79297z"/>
  <path d="m66.648 28.711c-0.27734 0-0.54688-0.10547-0.75-0.29297l-5.4414-5.0781c-0.22266-0.20703-0.35156-0.5-0.35156-0.80469 0-0.30469 0.12891-0.59766 0.35156-0.80469l5.4414-5.0742c0.44922-0.40625 1.1328-0.375 1.543 0.066406 0.41016 0.4375 0.39062 1.125-0.042968 1.543l-4.5781 4.2734 4.5781 4.2695c0.32812 0.30859 0.43359 0.78516 0.26953 1.2031-0.16406 0.41797-0.56641 0.69531-1.0195 0.69531z"/>
  <path d="m78.117 28.711c-0.44922 0-0.85156-0.27734-1.0195-0.69531-0.16406-0.41797-0.058594-0.89453 0.26953-1.2031l4.5781-4.2734-4.5781-4.2734v0.003906c-0.43359-0.41797-0.45313-1.1055-0.042969-1.543 0.41016-0.44141 1.0977-0.46875 1.543-0.066406l5.4414 5.0742c0.22266 0.20703 0.35156 0.5 0.35156 0.80469 0 0.30469-0.12891 0.59766-0.35156 0.80469l-5.4414 5.0781c-0.20313 0.1875-0.47266 0.29297-0.75 0.28906z"/>
  <path d="m48.184 20.961h-4c-0.60938 0-1.1016-0.49219-1.1016-1.0977 0-0.60938 0.49219-1.1016 1.1016-1.1016h4c0.60547 0 1.0977 0.49219 1.0977 1.1016 0 0.60547-0.49219 1.0977-1.0977 1.0977zm-8 0h-4c-0.60938 0-1.1016-0.49219-1.1016-1.0977 0-0.60938 0.49219-1.1016 1.1016-1.1016h4c0.60547 0 1.0977 0.49219 1.0977 1.1016 0 0.60547-0.49219 1.0977-1.0977 1.0977zm-8 0h-4c-0.60938 0-1.1016-0.49219-1.1016-1.0977 0-0.60938 0.49219-1.1016 1.1016-1.1016h4c0.60547 0 1.0977 0.49219 1.0977 1.1016 0 0.60547-0.49219 1.0977-1.0977 1.0977z"/>
  <path d="m48.184 24.742h-4c-0.60938 0-1.1016-0.49219-1.1016-1.0977 0-0.60938 0.49219-1.1016 1.1016-1.1016h4c0.60547 0 1.0977 0.49219 1.0977 1.1016 0 0.60547-0.49219 1.0977-1.0977 1.0977zm-8 0h-4c-0.60938 0-1.1016-0.49219-1.1016-1.0977 0-0.60938 0.49219-1.1016 1.1016-1.1016h4c0.60547 0 1.0977 0.49219 1.0977 1.1016 0 0.60547-0.49219 1.0977-1.0977 1.0977zm-8 0h-4c-0.60938 0-1.1016-0.49219-1.1016-1.0977 0-0.60938 0.49219-1.1016 1.1016-1.1016h4c0.60547 0 1.0977 0.49219 1.0977 1.1016 0 0.60547-0.49219 1.0977-1.0977 1.0977z"/>
  <path d="m48.184 28.527h-4c-0.60938 0-1.1016-0.49219-1.1016-1.1016 0-0.60547 0.49219-1.1016 1.1016-1.1016h4c0.60547 0 1.0977 0.49609 1.0977 1.1016 0 0.60938-0.49219 1.1016-1.0977 1.1016zm-8 0h-4c-0.60938 0-1.1016-0.49219-1.1016-1.1016 0-0.60547 0.49219-1.1016 1.1016-1.1016h4c0.60547 0 1.0977 0.49609 1.0977 1.1016 0 0.60938-0.49219 1.1016-1.0977 1.1016zm-8 0h-4c-0.60938 0-1.1016-0.49219-1.1016-1.1016 0-0.60547 0.49219-1.1016 1.1016-1.1016h4c0.60547 0 1.0977 0.49609 1.0977 1.1016 0 0.60938-0.49219 1.1016-1.0977 1.1016z"/>
  <path d="m48.184 32.309h-4c-0.60938 0-1.1016-0.49219-1.1016-1.1016 0-0.60547 0.49219-1.0977 1.1016-1.0977h4c0.60547 0 1.0977 0.49219 1.0977 1.0977 0 0.60938-0.49219 1.1016-1.0977 1.1016zm-8 0h-4c-0.60938 0-1.1016-0.49219-1.1016-1.1016 0-0.60547 0.49219-1.0977 1.1016-1.0977h4c0.60547 0 1.0977 0.49219 1.0977 1.0977 0 0.60938-0.49219 1.1016-1.0977 1.1016zm-8 0h-4c-0.60938 0-1.1016-0.49219-1.1016-1.1016 0-0.60547 0.49219-1.0977 1.1016-1.0977h4c0.60547 0 1.0977 0.49219 1.0977 1.0977 0 0.60938-0.49219 1.1016-1.0977 1.1016z"/>
  <path d="m74.645 38.488h-4c-0.60938 0-1.1016-0.49219-1.1016-1.1016 0-0.60547 0.49219-1.0977 1.1016-1.0977h4c0.60547 0 1.0977 0.49219 1.0977 1.0977 0 0.60938-0.49219 1.1016-1.0977 1.1016zm-8 0h-4c-0.60938 0-1.1016-0.49219-1.1016-1.1016 0-0.60547 0.49219-1.0977 1.1016-1.0977h4c0.60547 0 1.0977 0.49219 1.0977 1.0977 0 0.60938-0.49219 1.1016-1.0977 1.1016zm-8 0h-4c-0.60938 0-1.1016-0.49219-1.1016-1.1016 0-0.60547 0.49219-1.0977 1.1016-1.0977h4c0.60547 0 1.0977 0.49219 1.0977 1.0977 0 0.60938-0.49219 1.1016-1.0977 1.1016z"/>
  <path d="m74.645 42.27h-4c-0.60938 0-1.1016-0.49219-1.1016-1.0977 0-0.60938 0.49219-1.1016 1.1016-1.1016h4c0.60547 0 1.0977 0.49219 1.0977 1.1016 0 0.60547-0.49219 1.0977-1.0977 1.0977zm-8 0h-4c-0.60938 0-1.1016-0.49219-1.1016-1.0977 0-0.60938 0.49219-1.1016 1.1016-1.1016h4c0.60547 0 1.0977 0.49219 1.0977 1.1016 0 0.60547-0.49219 1.0977-1.0977 1.0977zm-8 0h-4c-0.60938 0-1.1016-0.49219-1.1016-1.0977 0-0.60938 0.49219-1.1016 1.1016-1.1016h4c0.60547 0 1.0977 0.49219 1.0977 1.1016 0 0.60547-0.49219 1.0977-1.0977 1.0977z"/>
  <path d="m74.645 46.055h-4c-0.60938 0-1.1016-0.49609-1.1016-1.1016 0-0.60938 0.49219-1.1016 1.1016-1.1016h4c0.60547 0 1.0977 0.49219 1.0977 1.1016 0 0.60547-0.49219 1.1016-1.0977 1.1016zm-8 0h-4c-0.60938 0-1.1016-0.49609-1.1016-1.1016 0-0.60938 0.49219-1.1016 1.1016-1.1016h4c0.60547 0 1.0977 0.49219 1.0977 1.1016 0 0.60547-0.49219 1.1016-1.0977 1.1016zm-8 0h-4c-0.60938 0-1.1016-0.49609-1.1016-1.1016 0-0.60938 0.49219-1.1016 1.1016-1.1016h4c0.60547 0 1.0977 0.49219 1.0977 1.1016 0 0.60547-0.49219 1.1016-1.0977 1.1016z"/>
  <path d="m74.645 49.836h-4c-0.60938 0-1.1016-0.49219-1.1016-1.1016 0-0.60547 0.49219-1.0977 1.1016-1.0977h4c0.60547 0 1.0977 0.49219 1.0977 1.0977 0 0.60938-0.49219 1.1016-1.0977 1.1016zm-8 0h-4c-0.60938 0-1.1016-0.49219-1.1016-1.1016 0-0.60547 0.49219-1.0977 1.1016-1.0977h4c0.60547 0 1.0977 0.49219 1.0977 1.0977 0 0.60938-0.49219 1.1016-1.0977 1.1016zm-8 0h-4c-0.60938 0-1.1016-0.49219-1.1016-1.1016 0-0.60547 0.49219-1.0977 1.1016-1.0977h4c0.60547 0 1.0977 0.49219 1.0977 1.0977 0 0.60938-0.49219 1.1016-1.0977 1.1016z"/>
 </g>
</svg>